<svg xmlns="http://www.w3.org/2000/svg" viewBox="1.165000081062317 8.319999694824219 29.670047760009766 16.137001037597656" width="32" height="16"><path d="M30.835 13.466V9.325A0.995 0.995 0 0 0 29.84 8.32H2.16a0.995 0.995 0 0 0 -0.995 0.995v4.16a2.915 2.915 0 0 1 0 5.827v4.16a0.995 0.995 0 0 0 0.995 0.995h27.68a0.995 0.995 0 0 0 0.995 -0.995V19.306a2.918 2.918 0 0 1 0 -5.84Zm-22.893 10.976h-0.989V8.32h0.989Zm12.48 -9.216 -1.92 1.747a0.336 0.336 0 0 0 -0.102 0.32L18.938 19.84a0.336 0.336 0 0 1 -0.496 0.365l-2.24 -1.28a0.336 0.336 0 0 0 -0.336 0l-2.24 1.306A0.336 0.336 0 0 1 13.104 19.84l0.528 -2.541a0.336 0.336 0 0 0 -0.106 -0.32l-1.92 -1.731a0.336 0.336 0 0 1 0.189 -0.589l2.563 -0.259a0.336 0.336 0 0 0 0.272 -0.198L15.68 11.818a0.336 0.336 0 0 1 0.618 0l1.066 2.368a0.336 0.336 0 0 0 0.275 0.198l2.582 0.262a0.336 0.336 0 0 1 0.189 0.582Zm4.634 9.216h-0.998V8.32h0.989Z"/></svg>