<svg id="Layer_1" data-name="Layer 1" xmlns="http://www.w3.org/2000/svg" viewBox="0 0 153.53 48.71"><defs><style>.cls-1{fill:none;stroke:#4e1d11;stroke-miterlimit:10;}.cls-2{fill:#4e1d11;}.cls-3{fill:#fca945;}.cls-4{fill:#fcedde;}</style></defs><path class="cls-1" d="M48.76,29.12a5,5,0,0,1-2.52.8,2.12,2.12,0,0,0,.09.27c.77,1.78,0,3.18-1.9,3.38-1.57.17-3.15.25-4.73.27C33.8,33.93,27.91,34,22,34a24,24,0,0,1-4.48-.37,5.29,5.29,0,0,1-4.37-4.48,3.24,3.24,0,0,1,1.13-3,1.12,1.12,0,0,0,.35-.69,8.59,8.59,0,0,1,1.32-4,1.33,1.33,0,0,0,.14-.66,8.38,8.38,0,0,1,.7-3.66l.06-.12a1.76,1.76,0,0,1,2.86-.79,6.06,6.06,0,0,1,1.87,1.9.63.63,0,0,0,.46.23c.79,0,1.58-.06,2.36-.12a.51.51,0,0,0,.33-.23c.43-.54.78-1.16,1.25-1.65a1.41,1.41,0,0,1,2.15-.09,9.25,9.25,0,0,1,1.33,1.53.52.52,0,0,0,.63.27c1.42-.3,2.84-.64,4.27-.85A9.32,9.32,0,0,1,41,18.54a22.57,22.57,0,0,1,2.14,1.83,4.51,4.51,0,0,1,6.09.13C51.52,22.74,51.91,27.1,48.76,29.12Z"/><path class="cls-2" d="M43.15,20.37a4.48,4.48,0,0,1,6.09.13c2.28,2.23,2.67,6.6-.48,8.62a5,5,0,0,1-2.52.79c0,.12.06.2.09.28.77,1.77,0,3.17-1.9,3.38-1.57.16-3.15.25-4.72.27-5.9.09-11.8.16-17.7.18a23.88,23.88,0,0,1-4.47-.38,5.25,5.25,0,0,1-4.37-4.47,3.2,3.2,0,0,1,1.12-3,1.19,1.19,0,0,0,.36-.69,8.5,8.5,0,0,1,1.31-4,1.29,1.29,0,0,0,.14-.65,8.5,8.5,0,0,1,.7-3.66l.06-.13a1.76,1.76,0,0,1,2.86-.78,6,6,0,0,1,1.87,1.9.63.63,0,0,0,.47.23c.78,0,1.57-.07,2.36-.12a.61.61,0,0,0,.33-.23A17,17,0,0,1,26,16.43a1.4,1.4,0,0,1,2.15-.09,8.8,8.8,0,0,1,1.32,1.53.53.53,0,0,0,.63.27c1.42-.3,2.84-.65,4.28-.85A9.33,9.33,0,0,1,41,18.54,22.26,22.26,0,0,1,43.15,20.37Zm1.49,4.68a7.73,7.73,0,0,1,.71-1.26,1.69,1.69,0,0,1,1.74-.49c.18,0,.31.28.46.44-.15.07-.3.22-.44.2a1.49,1.49,0,0,0-1.8,1.58c-.05.78-.1.83-.87.82l-.19,0c-.08.35-.14.7-.22,1.05-.16.7,0,1,.59,1.31a5.8,5.8,0,0,0,.73.28,4.06,4.06,0,0,0,4.51-2.36,5.29,5.29,0,0,0-1.15-5.54,3.69,3.69,0,0,0-5.05-.05.59.59,0,0,0-.14.5,9.12,9.12,0,0,1,.79,3.78,1.07,1.07,0,0,0,.14.36l.13-.05ZM15.77,23.92l-.28,1.74-.27.83c-1.5,1-1.59,2.37-.86,3.87a4.57,4.57,0,0,0,3.15,2.46,14.43,14.43,0,0,0,2.71.32c2.1,0,4.2,0,6.3,0l8.53-.09a10.23,10.23,0,0,0,1.49-.42,1.2,1.2,0,0,0,.65-1.47A2.32,2.32,0,0,0,35,29.67c-.43-.06-.86-.11-1.28-.19-.13,0-.25-.15-.38-.23.12-.09.23-.25.36-.27a4.62,4.62,0,0,1,3,.53,2.26,2.26,0,0,1,.74,3.34,1.35,1.35,0,0,0-.08.19c.53,0,1,0,1.5,0l4.35-.19a12.68,12.68,0,0,0,1.64-.22,1.16,1.16,0,0,0,.86-1.54,2.47,2.47,0,0,0-1.21-1.62c-.86-.51-1.14-.46-1.83.3a6.2,6.2,0,0,1-.75.45c-.1,0-.26-.07-.4-.11a1,1,0,0,1,.13-.36c.2-.21.46-.37.65-.59A5.22,5.22,0,0,0,43.54,26a6.78,6.78,0,0,0-3-6.77A8,8,0,0,0,35.78,18a23,23,0,0,0-5,.86l-.75.18a20,20,0,0,1,.49,2.23,13.71,13.71,0,0,1,0,2.22c0,.11-.2.21-.3.32a1.59,1.59,0,0,1-.27-.37,2.32,2.32,0,0,1,0-.46,23.41,23.41,0,0,0-.29-2.52A6.06,6.06,0,0,0,27.69,17c-.5-.41-.81-.39-1.23.1a5.53,5.53,0,0,0-.8,1.07c-.31.55-.54,1.15-.83,1.71-.06.11-.25.16-.38.24a1.37,1.37,0,0,1-.21-.44,2.39,2.39,0,0,1,.16-.61,9.88,9.88,0,0,0-1.93.13,1.28,1.28,0,0,1-1.78-.81,3.3,3.3,0,0,0-1.79-1.61c-.37-.17-.74-.22-1,.19A5.63,5.63,0,0,0,17,20.49a1.37,1.37,0,0,0,.27-.54,20.65,20.65,0,0,1,.54-2.09c.19-.5.62-.56.94-.14a7.77,7.77,0,0,1,.77,1.49c.11.27,0,.44-.29.6a19.29,19.29,0,0,0-1.94,1.42A5,5,0,0,0,15.77,23.92Zm1.93-4c.45-.26.77-.43,1.08-.63.07,0,.16-.2.14-.25-.17-.36-.36-.71-.55-1.06l-.21,0Z"/><path class="cls-3" d="M15.22,26.49l.27-.83c.75-.17,1.08-.47.93-1-.09-.3-.42-.52-.65-.77a5,5,0,0,1,1.54-2.69,19.29,19.29,0,0,1,1.94-1.42c.25-.16.4-.33.29-.6a7.77,7.77,0,0,0-.77-1.49c-.32-.42-.75-.36-.94.14A20.65,20.65,0,0,0,17.29,20a1.37,1.37,0,0,1-.27.54A5.63,5.63,0,0,1,17.88,17c.28-.41.65-.36,1-.19a3.3,3.3,0,0,1,1.79,1.61,1.28,1.28,0,0,0,1.78.81,9.88,9.88,0,0,1,1.93-.13,2.39,2.39,0,0,0-.16.61,1.37,1.37,0,0,0,.21.44c.13-.08.32-.13.38-.24.29-.56.52-1.16.83-1.71a5.53,5.53,0,0,1,.8-1.07c.42-.49.73-.51,1.23-.1a6.06,6.06,0,0,1,1.94,3.46A23.41,23.41,0,0,1,29.92,23a2.32,2.32,0,0,0,0,.46,1.59,1.59,0,0,0,.27.37c.1-.11.3-.21.3-.32a13.71,13.71,0,0,0,0-2.22A20,20,0,0,0,30,19.07l.75-.18a23,23,0,0,1,5-.86,8,8,0,0,1,4.73,1.2,6.78,6.78,0,0,1,3,6.77,5.22,5.22,0,0,1-1.18,3.16c-.19.22-.45.38-.65.59a1,1,0,0,0-.13.36c.14,0,.3.15.4.11a6.2,6.2,0,0,0,.75-.45,2.49,2.49,0,0,1,.68,1.94c0,.38-.09.76-.14,1.14L38.92,33c-.49,0-1,0-1.5,0a1.35,1.35,0,0,1,.08-.19,2.26,2.26,0,0,0-.74-3.34,4.62,4.62,0,0,0-3-.53c-.13,0-.24.18-.36.27.13.08.25.21.38.23.42.08.85.13,1.28.19a10.18,10.18,0,0,1,.65,1.53,2.34,2.34,0,0,1-.61,1.9l-8.53.09A2.74,2.74,0,0,0,27.26,31a2.5,2.5,0,0,0-1.81-2.26,3.93,3.93,0,0,0-2.28.09,3.41,3.41,0,0,1-3.89-1.17,3.5,3.5,0,0,0-3.12-1.3C15.84,26.36,15.53,26.44,15.22,26.49Zm13.27-5c0-.28,0-.56-.06-.83a4.47,4.47,0,0,0-.89-2.36c-.43-.52-.87-.56-1.21,0a13.16,13.16,0,0,0-1,2.07.93.93,0,0,0,.2.75,3.62,3.62,0,0,0,1.82,1.22C28.22,22.6,28.49,22.4,28.49,21.49Zm-7,7.09a2.05,2.05,0,0,0,1.77-.75c.18-.22.27-.46,0-.71a.56.56,0,0,0-.79-.12,1.28,1.28,0,0,1-1.9,0,.56.56,0,0,0-.79.12c-.25.27-.14.52.07.74A2.24,2.24,0,0,0,21.53,28.58ZM21.1,24l0,.09a2.3,2.3,0,0,0-.37,0,.94.94,0,0,0-.86.83.72.72,0,0,0,.56.84,6.16,6.16,0,0,0,1.34.23.85.85,0,0,0,.82-.64.79.79,0,0,0-.36-.93A8.56,8.56,0,0,0,21.1,24Z"/><path class="cls-4" d="M15.22,26.49c.31,0,.62-.13.94-.15a3.5,3.5,0,0,1,3.12,1.3,3.41,3.41,0,0,0,3.89,1.17,3.93,3.93,0,0,1,2.28-.09A2.5,2.5,0,0,1,27.26,31a2.74,2.74,0,0,1-.74,2.21c-2.1,0-4.2,0-6.3,0a14.43,14.43,0,0,1-2.71-.32,4.57,4.57,0,0,1-3.15-2.46C13.63,28.86,13.72,27.51,15.22,26.49Zm1.36,3.35.54-.16a2.18,2.18,0,0,0,1.26-.95c.33-.55.16-1.14-.45-1.24a12.24,12.24,0,0,0-2.7-.15c-.8.06-1.05.72-.65,1.44a1.16,1.16,0,0,0,.4.49,1.79,1.79,0,0,1,1.11,1.55c0,.1.23.18.36.27.07-.14.2-.27.2-.41A4.92,4.92,0,0,0,16.58,29.84Z"/><path class="cls-3" d="M45.35,29a5.8,5.8,0,0,1-.73-.28c-.63-.32-.75-.61-.59-1.31.08-.35.14-.7.22-1.05l.19,0c.77,0,.82,0,.87-.82a1.49,1.49,0,0,1,1.8-1.58c.14,0,.29-.13.44-.2-.15-.16-.28-.4-.46-.44a1.69,1.69,0,0,0-1.74.49,7.73,7.73,0,0,0-.71,1.26,2.65,2.65,0,0,1,.72-2.16,2.06,2.06,0,0,1,3.52.67,4.22,4.22,0,0,1,.18,2.14,3.49,3.49,0,0,1-2.12,2.87A12.44,12.44,0,0,1,45.35,29Z"/><path class="cls-4" d="M45.35,29a12.44,12.44,0,0,0,1.59-.43,3.49,3.49,0,0,0,2.12-2.87,4.22,4.22,0,0,0-.18-2.14,2.06,2.06,0,0,0-3.52-.67,2.65,2.65,0,0,0-.72,2.16l-.06.59-.13.05a1.07,1.07,0,0,1-.14-.36,9.12,9.12,0,0,0-.79-3.78.59.59,0,0,1,.14-.5,3.69,3.69,0,0,1,5.05.05,5.29,5.29,0,0,1,1.15,5.54A4.06,4.06,0,0,1,45.35,29Z"/><path class="cls-4" d="M43.27,32.85c0-.38.11-.76.14-1.14a2.49,2.49,0,0,0-.68-1.94c.69-.76,1-.81,1.83-.3a2.47,2.47,0,0,1,1.21,1.62,1.16,1.16,0,0,1-.86,1.54A12.68,12.68,0,0,1,43.27,32.85Z"/><path class="cls-4" d="M35.05,33.1a2.34,2.34,0,0,0,.61-1.9A10.18,10.18,0,0,0,35,29.67a2.32,2.32,0,0,1,2.18,1.54,1.2,1.2,0,0,1-.65,1.47A10.23,10.23,0,0,1,35.05,33.1Z"/><path class="cls-4" d="M17.7,20l.46-1.9.21,0c.19.35.38.7.55,1.06,0,.05-.07.2-.14.25C18.47,19.53,18.15,19.7,17.7,20Z"/><path class="cls-4" d="M15.77,23.92c.23.25.56.47.65.77.15.5-.18.8-.93,1C15.59,25.08,15.68,24.5,15.77,23.92Z"/><path class="cls-2" d="M28.49,21.49c0,.91-.27,1.11-1.14.84a3.62,3.62,0,0,1-1.82-1.22.93.93,0,0,1-.2-.75,13.16,13.16,0,0,1,1-2.07c.34-.55.78-.51,1.21,0a4.47,4.47,0,0,1,.89,2.36C28.46,20.93,28.47,21.21,28.49,21.49Zm-1.6-3.07c-.21.36-.37.62-.52.89-.72,1.38-.59,1.74.87,2.38a6.54,6.54,0,0,0,.68.2A5.4,5.4,0,0,0,26.89,18.42Z"/><path class="cls-2" d="M21.53,28.58a2.24,2.24,0,0,1-1.6-.72c-.21-.22-.32-.47-.07-.74a.56.56,0,0,1,.79-.12,1.28,1.28,0,0,0,1.9,0,.56.56,0,0,1,.79.12c.23.25.14.49,0,.71A2.05,2.05,0,0,1,21.53,28.58Z"/><path class="cls-4" d="M21.1,24a8.56,8.56,0,0,1,1.09.44.79.79,0,0,1,.36.93.85.85,0,0,1-.82.64,6.16,6.16,0,0,1-1.34-.23.72.72,0,0,1-.56-.84.94.94,0,0,1,.86-.83,2.3,2.3,0,0,1,.37,0Z"/><path class="cls-2" d="M16.58,29.84a4.92,4.92,0,0,1,.07.84c0,.14-.13.27-.2.41-.13-.09-.35-.17-.36-.27A1.79,1.79,0,0,0,15,29.27a1.16,1.16,0,0,1-.4-.49c-.4-.72-.15-1.38.65-1.44a12.24,12.24,0,0,1,2.7.15c.61.1.78.69.45,1.24a2.18,2.18,0,0,1-1.26.95Z"/><path class="cls-4" d="M26.89,18.42a5.4,5.4,0,0,1,1,3.47,6.54,6.54,0,0,1-.68-.2c-1.46-.64-1.59-1-.87-2.38C26.52,19,26.68,18.78,26.89,18.42Z"/><path class="cls-2" d="M63.67,30.67c.58-.37,1.08-.68,1.57-1a12.33,12.33,0,0,0,3.65-3.58c2-3.26,1-7-2.37-8.51a7.74,7.74,0,0,0-8.73,1.53,7.48,7.48,0,0,0-2.46,5.35,2.45,2.45,0,0,0,2,2.67,2.24,2.24,0,0,0,1.3-.31c.44-.23.39-.66.07-1a1.8,1.8,0,0,1-.4-.89,6.35,6.35,0,0,1,3.5-5.7,3.42,3.42,0,0,1,4.53,2.37,5.9,5.9,0,0,1-.4,3.68,9.76,9.76,0,0,1-3.55,4.31.94.94,0,0,1-.72,0,31,31,0,0,0-3.29-1.11,4.25,4.25,0,0,0-2.11.21A1.35,1.35,0,0,0,55.73,31a4,4,0,0,0,3.65,1.21c.54-.06,1.06-.3,1.6-.41a1,1,0,0,1,.68.08c.63.42,1.24.89,1.83,1.37a17.86,17.86,0,0,0,4.67,3.06,6.87,6.87,0,0,0,5.91,0,3.87,3.87,0,0,0,2-2.13,3.4,3.4,0,0,0,.19-1.48c-.09-.92-.87-1.2-1.63-.66a1.73,1.73,0,0,0-.25.21,3.42,3.42,0,0,1-3.72,1.12A24.24,24.24,0,0,1,63.67,30.67Zm-3.92-.1,0,.27c-.71,0-1.43-.06-2.14-.14-.15,0-.28-.25-.42-.39.17-.1.33-.27.51-.29A3,3,0,0,1,59.75,30.57Z"/><path class="cls-2" d="M110.28,23.13a2.71,2.71,0,0,0-2.34.35,6.85,6.85,0,0,0-3.07,3.69,3.45,3.45,0,0,0-.12.43,2.72,2.72,0,0,0,1.13,3.12,2.68,2.68,0,0,0,3.31-.79l.23-.21a2,2,0,0,0,3.07.79c.55-.31,1.05-.71,1.63-1.11a1.69,1.69,0,0,0,1,1.47,2.43,2.43,0,0,0,2.09-.17c.79-.42,1.52-1,2.29-1.46a4,4,0,0,0,4.66,1.44,5.51,5.51,0,0,0,3.16-2.13,2.75,2.75,0,0,0,.44-1c0-.22-.15-.47-.24-.71a1.89,1.89,0,0,0-.6.31,5.25,5.25,0,0,1-2.93,2c-1.22.25-2-.25-2.07-1.41.51-.11,1-.18,1.53-.33a3.7,3.7,0,0,0,2.27-1.63,1.93,1.93,0,0,0-1.31-3A4.26,4.26,0,0,0,119.14,27a2.85,2.85,0,0,1-1.75,2.25c-.53.14-.84-.05-.86-.62a4.53,4.53,0,0,1,.13-1.38c.56-1.89,1.14-3.77,1.79-5.63a12.41,12.41,0,0,1,.89-1.53,1.24,1.24,0,0,0,.16-.82,2.1,2.1,0,0,0-1.64-1.17,1.2,1.2,0,0,0-1.35.64,7.62,7.62,0,0,0-1,2.1,54.45,54.45,0,0,0-1.17,5.79,3.35,3.35,0,0,1-1.63,2.35,1.09,1.09,0,0,1-.82,0c-.08,0-.12-.46-.07-.69.32-1.45.64-2.9,1-4.34a1,1,0,0,0-.61-1.28,3.16,3.16,0,0,0-.54-.2C110.83,22.24,110.66,22.32,110.28,23.13Zm-.19,1,.18.2-1,3.93a.74.74,0,0,1-.16.27,1,1,0,0,1-1.24.39,1.22,1.22,0,0,1-.43-.94A4.68,4.68,0,0,1,109,24.66,4,4,0,0,1,110.09,24.13Zm11.76,2.43a2.89,2.89,0,0,1,1-2.21,1,1,0,0,1,.81-.12,1,1,0,0,1,.3.75A1.86,1.86,0,0,1,121.85,26.56Z"/><path class="cls-2" d="M75,29.74a1.82,1.82,0,0,0,2.58,1,5.65,5.65,0,0,0,1.3-.65A12.28,12.28,0,0,0,80,29.17a5,5,0,0,0,8-.8,2.13,2.13,0,0,0,.32-.82c0-.21-.14-.44-.21-.67-.21.09-.49.12-.61.28a5.26,5.26,0,0,1-3,2c-1.22.24-2-.3-2-1.37.72-.21,1.45-.36,2.13-.62a3.13,3.13,0,0,0,1.73-1.53,1.91,1.91,0,0,0-1.36-2.84,4.26,4.26,0,0,0-5.32,4.09A2.42,2.42,0,0,1,78.19,29a1,1,0,0,1-.71-.06c-.08,0-.07-.39,0-.57.32-1,.66-2,1-3,.07-.24.13-.49.18-.74.2-1,.09-1.3-.54-1.53-1-.36-1.65-.17-2,.71s-.69,2.05-1.07,3.06a10.4,10.4,0,0,1-.73,1.55,1.43,1.43,0,0,1-.6.54c-.55.27-.9,0-.76-.59.25-1.05.55-2.08.84-3.13a3.79,3.79,0,0,0,.21-.73c0-.46.29-1-.24-1.34a1.62,1.62,0,0,0-1.79.15A4.58,4.58,0,0,0,71,24.8a9.21,9.21,0,0,0-.57,4.32,1.88,1.88,0,0,0,2.82,1.68A13.36,13.36,0,0,0,75,29.74Zm7.4-3.19a3,3,0,0,1,1-2.16,1,1,0,0,1,.85-.15,1,1,0,0,1,.29.81A1.86,1.86,0,0,1,82.42,26.55Z"/><path class="cls-2" d="M97.16,32.07a9.52,9.52,0,0,0,4.78-1.27,3.89,3.89,0,0,0,.67-6.5c-1-1-2.19-1.87-3.27-2.83a8.19,8.19,0,0,1-1.2-1.3.85.85,0,0,1,.26-1.28,2.1,2.1,0,0,1,2.1-.31c.41.17.58.44.25.83l-.08.11c-.62.88-.56,1.08.45,1.44a1.5,1.5,0,0,0,1.72-.2,1.94,1.94,0,0,0,.56-1.93A2.7,2.7,0,0,0,101,16.9a6.5,6.5,0,0,0-3.48.53,3,3,0,0,0-1.27,4.63,14.72,14.72,0,0,0,2,2.06c.46.44,1,.81,1.46,1.23a3.11,3.11,0,0,1,.4.41,2.84,2.84,0,0,1,.86,2.78,2.67,2.67,0,0,1-2.37,1.77,4.88,4.88,0,0,1-3.82-.8c-1.44-1.06-1.27-2.4.35-3.12.31-.13.64-.21,1-.34.53-.23.64-.69.18-1A2.28,2.28,0,0,0,95,24.58a3.34,3.34,0,0,0-3.15,2,3.07,3.07,0,0,0,.53,3.5A6.18,6.18,0,0,0,97.16,32.07Z"/><path class="cls-2" d="M132.24,16.73a4.74,4.74,0,0,0-3,.85A2.64,2.64,0,0,0,129.8,22a1.91,1.91,0,0,0,2-.35.67.67,0,0,0-.26-1.19c-.64-.23-.75-.58-.32-1.11a1.41,1.41,0,0,1,1.93-.3,1.7,1.7,0,0,1,.66,2.21,4,4,0,0,1-.86.93c-.64.51-1.36.95-2,1.46a13.7,13.7,0,0,0-1.68,1.54,2.25,2.25,0,0,0-.46,1.15c-.07.61.39.91.9,1.09s.77-.1,1-.49a5.82,5.82,0,0,1,2.17-2.18,21.81,21.81,0,0,0,2.28-1.62,3.36,3.36,0,0,0-1-6A14.08,14.08,0,0,0,132.24,16.73Z"/><path class="cls-2" d="M86,17.91a3.69,3.69,0,0,0-.87.48c-.67.68-1.31,1.38-1.92,2.11a2.63,2.63,0,0,0-.3.77,2.92,2.92,0,0,0,.77.08,5.17,5.17,0,0,0,2.63-1.18,1.59,1.59,0,0,0,.49-.58c.13-.33.32-.79.19-1S86.36,18.13,86,17.91Z"/><path class="cls-2" d="M129.15,28.22a1.4,1.4,0,0,0-1.46,1.14,1.79,1.79,0,0,0,1.8,1.54c.66,0,1-.46,1-1.24A1.29,1.29,0,0,0,129.15,28.22Z"/></svg>